<svg xmlns="http://www.w3.org/2000/svg" width="256" height="256"><path fill-opacity=".016" d="M0 128.004v128.004l128.25-.254 128.25-.254.254-127.75L257.008 0H0v128.004m.485.496c0 70.4.119 99.053.265 63.672.146-35.38.146-92.98 0-128C.604 29.153.485 58.1.485 128.5" fill="#1976D2" fill-rule="evenodd"/><path fill-opacity=".203" d="M112.5 11.142C62.669 17.472 21.842 56.372 11.896 107c-1.646 8.382-1.646 33.618 0 42 12.356 62.892 70.915 104.931 133.108 95.555 25.786-3.887 47.614-14.923 66.121-33.43 14.429-14.43 23.298-28.984 29.323-48.121 12.836-40.772 2.345-85.351-27.372-116.305C186.895 19.428 149.988 6.38 112.5 11.142m-14.68 143.87c-1.979 5.901-2.336 7.988-1.366 7.988.722 0 1.548-.9 1.836-2 .4-1.532 1.364-2 4.116-2 2.463 0 3.594.454 3.594 1.441 0 1.519 1.799 3.093 2.609 2.283.262-.262-.533-3.907-1.767-8.1-1.853-6.3-2.599-7.622-4.292-7.612-1.669.011-2.549 1.499-4.73 8m13.18-7.426c0 .323.969 3.923 2.154 8 1.649 5.676 2.576 7.414 3.955 7.414 1.267 0 1.996-1.04 2.459-3.511.937-4.996 2.147-5.173 3.541-.518 1.634 5.453 4.418 5.5 5.872.099.582-2.162 1.717-5.797 2.522-8.078 1.059-3.003 1.132-4.037.264-3.748-.66.22-2.019 3.18-3.019 6.578-1.634 5.548-3.748 8.289-3.748 4.86 0-2.779-3.126-11.682-4.102-11.682-.563 0-.898.787-.744 1.75.382 2.388-2.205 11.25-3.284 11.25-.478 0-.87-.593-.87-1.318 0-2.686-3.11-11.682-4.039-11.682-.528 0-.961.264-.961.586m25.391 7.41.109 7.996 4.75.004c2.613.002 4.75-.446 4.75-.996s-1.575-1-3.5-1c-3.067 0-3.5-.31-3.5-2.5 0-2.111.467-2.5 3-2.5 1.65 0 3-.45 3-1s-1.35-1-3-1c-2.533 0-3-.389-3-2.5 0-2.182.437-2.5 3.441-2.5 1.893 0 3.719-.45 4.059-1 .383-.62-1.443-1-4.8-1h-5.418l.109 7.996M148 148c0 .55 1.125 1 2.5 1 2.429 0 2.5.2 2.5 7 0 4.932.369 7.001 1.25 7.002.877.001 1.25-2.014 1.25-6.75 0-6.241.17-6.776 2.25-7.072 4.639-.658 2.023-2.18-3.75-2.18-3.333 0-6 .444-6 1m-46.963 4.402c-1.513 3.981-1.314 4.598 1.482 4.598 2.239 0 2.447-.306 1.871-2.75-.994-4.218-2.199-4.882-3.353-1.848M76.991 175.25c-.004 1.787-.292 5.613-.639 8.5-.436 3.63-.279 5.25.509 5.25.632 0 1.183-1.669 1.239-3.75.055-2.062.441-4.875.859-6.25l.76-2.5 1.133 2.794c.622 1.537 1.409 3.899 1.748 5.25.991 3.946 3.11 2.845 4.9-2.544.913-2.75 2.075-5 2.58-5 .506 0 .92 2.475.92 5.5 0 3.84.391 5.5 1.297 5.5 1.013 0 1.139-1.665.572-7.595-.399-4.177-.963-7.833-1.254-8.123-1.357-1.357-3.422.958-4.597 5.153-.711 2.539-1.654 4.84-2.097 5.114-.442.273-1.588-1.988-2.545-5.026-1.271-4.033-2.232-5.523-3.559-5.523-1.382 0-1.819.779-1.826 3.25m24.702-2.5c-1.621 2.859-4.702 14.426-4.102 15.397.501.811.997.496 1.541-.976 1.135-3.068 7.432-3.121 8.4-.07.421 1.328 1.016 1.751 1.618 1.149.601-.601.123-3.764-1.3-8.6-1.689-5.741-2.685-7.65-3.991-7.65-.958 0-1.932.338-2.166.75M114 180.333c0 6.741.287 8.334 1.5 8.334s1.5-1.593 1.5-8.334c0-6.74-.287-8.333-1.5-8.333s-1.5 1.593-1.5 8.333m6.473-4.295-2.798 4.039 2.912 4.132c2.867 4.067 5.413 5.926 5.413 3.951 0-.554-1.125-2.344-2.5-3.978-3.128-3.717-3.117-4.506.119-8.749 1.924-2.523 2.225-3.433 1.136-3.433-.816 0-2.742 1.817-4.282 4.038m9.518-.788c-.004 1.787-.292 5.613-.639 8.5-.436 3.63-.279 5.25.509 5.25.632 0 1.183-1.669 1.239-3.75.055-2.062.441-4.875.859-6.25l.76-2.5 1.133 2.794c.622 1.537 1.409 3.899 1.748 5.25.991 3.946 3.11 2.845 4.9-2.544.913-2.75 2.075-5 2.58-5 .506 0 .92 2.475.92 5.5 0 3.84.391 5.5 1.297 5.5 1.013 0 1.139-1.665.572-7.595-.399-4.177-.963-7.833-1.254-8.123-1.357-1.357-3.422.958-4.597 5.153-.711 2.539-1.613 4.815-2.004 5.057-.392.242-1.548-2.02-2.57-5.026-1.325-3.898-2.372-5.466-3.651-5.466-1.354 0-1.795.795-1.802 3.25M151 179.465c0 6.566.254 7.6 2.105 8.591 3.215 1.721 8.778.323 9.354-2.35 1.151-5.343 1.023-13.709-.209-13.707-.871.001-1.25 1.961-1.25 6.466 0 5.368-.328 6.64-1.934 7.5-2.502 1.339-2.635 1.323-4.495-.536-1.075-1.076-1.571-3.444-1.571-7.5 0-3.286-.446-5.929-1-5.929-.577 0-1 3.155-1 7.465m17 .428c0 6.094.342 8.024 1.5 8.469 1.126.432 1.5-.165 1.5-2.393 0-3.939 2.549-3.926 4.797.025.936 1.646 2.266 2.996 2.953 3 1.684.008 1.573-1.088-.393-3.895-1.528-2.182-1.522-2.549.084-5.269 1.595-2.7 1.604-3.112.12-5.377-1.31-1.999-2.435-2.453-6.084-2.453H168v7.893m3-2.463c0 2.826.391 3.57 1.878 3.57 1.032 0 2.469-.713 3.192-1.584 1.671-2.013.125-4.782-2.922-5.236-1.856-.276-2.148.166-2.148 3.25m-68.876.643c-1.576 4.522-1.456 4.927 1.455 4.927 2.384 0 2.528-.246 1.895-3.25-1.006-4.776-2.082-5.314-3.35-1.677" fill="#1976D2" fill-rule="evenodd"/><path fill-opacity=".575" d="M108.5 14.595c-24.115 4.269-47.197 16.706-64.008 34.491C6.18 89.616 2.483 151.98 35.75 196.524c37.156 49.75 106.086 61.198 157.673 26.187 7.851-5.329 20.525-17.53 26.655-25.66 10.423-13.824 18.635-33.167 21.451-50.528 8.138-50.18-17.611-99.621-63.522-121.966-5.21-2.536-12.406-5.481-15.99-6.543-16.733-4.962-37.356-6.279-53.517-3.419m28.602 60.961L94.704 80.88l-5.861-5.098c-3.223-2.804-6.015-4.914-6.204-4.69-7.969 9.464-35.105 46.776-34.476 47.404.244.244 8.192-7.193 17.663-16.526C75.297 92.636 83.303 85 83.616 85c.314 0 10.091 9.677 21.727 21.505L126.5 128.01l11.17-.005 11.17-.005 13.763-17.25c7.57-9.487 15.286-19.161 17.146-21.498l3.381-4.247 8.212 11.247C202.144 111.048 208.165 119 208.565 119c.597 0-4.806-11.359-12.844-27-10.742-20.904-11.461-22.023-14.053-21.884-1.192.064-21.247 2.512-44.566 5.44M91.5 108.741c-7.328.751-7.5.896-7.5 6.328v5.031l5.75-.3 5.75-.3.31-4.89c.356-5.597-.156-6.294-4.31-5.869m-16.25 1.991-4.25.383V120h11v-5c0-3.427-.393-4.945-1.25-4.825-.687.096-3.162.347-5.5.557m97.682-.258c-.037.014-.15 1.939-.25 4.277l-.182 4.251 4.25-.001L181 119v-3.895c0-3.814-.083-3.903-4-4.276-2.2-.21-4.031-.37-4.068-.355M183 115.5c0 3.481.024 3.5 4.5 3.5 4.29 0 4.5-.134 4.5-2.875 0-2.42-.495-2.974-3.125-3.5-5.423-1.085-5.875-.863-5.875 2.875m-10 10.117c0 4.299.155 4.575 2.25 4.013 1.238-.331 3.037-.609 4-.616 1.373-.011 1.75-.876 1.75-4.014v-4h-8v4.617m10-1.06v3.558l4.25-.308c3.989-.288 4.269-.506 4.563-3.557.313-3.238.296-3.25-4.25-3.25-4.562 0-4.563.001-4.563 3.557M71.193 126.25l.307 4.25 5.25.302 5.25.303V122H70.885l.308 4.25M84 127c0 4.515.218 5.001 2.25 5.011 1.237.006 3.938.29 6 .631l3.75.62V122H84v5m16.533 19.947C99.699 148.296 95 162.079 95 163.175c0 1.711 2.892.74 3.5-1.175.781-2.46 7.5-2.961 7.5-.559 0 1.817 1.92 3.066 2.954 1.922 1.275-1.412-4.208-16.818-6.111-17.168-.911-.168-1.951.17-2.31.752m10.268-.415c-.315.316.063 2.687.841 5.271a368.959 368.959 0 0 1 2.425 8.447c1.347 4.999 3.664 4.844 5.717-.383l1.624-4.132 1.755 4.132c2.738 6.448 4.277 5.486 7.697-4.811 2.431-7.32 2.655-9.394.954-8.827-.652.217-2.175 3.292-3.384 6.833-2.315 6.778-2.406 6.748-4.737-1.562-.825-2.941-1.977-5-2.798-5-.824 0-1.259.785-1.062 1.919.413 2.386-1.885 10.86-2.721 10.031-.337-.333-1.316-3.131-2.176-6.216-1.462-5.245-2.778-7.059-4.135-5.702m25.409 8.164.29 8.804h4.917c5.997 0 7.563-2.219 1.895-2.686-3.041-.25-3.812-.719-3.812-2.314 0-1.438.772-2.089 2.75-2.316 1.642-.189 2.75-.923 2.75-1.822 0-.982-.783-1.403-2.25-1.21-2.328.305-2.75-.103-2.75-2.652 0-1.054 1.065-1.5 3.583-1.5 5.77 0 3.628-2.449-2.451-2.804l-5.211-.303.289 8.803m12.457-8.029c-1.259 1.258-.665 2.333 1.288 2.333 2.259 0 3.441 4.355 2.886 10.64-.258 2.916.026 3.86 1.159 3.86 1.168 0 1.565-1.603 1.794-7.25.26-6.429.515-7.25 2.25-7.25 1.076 0 1.956-.675 1.956-1.5 0-1.146-1.259-1.5-5.333-1.5-2.934 0-5.634.3-6 .667m-47.5 6.283c-1.48 4.247-1.521 4.05.833 4.05 2.103 0 2.486-1.899 1.097-5.449-.666-1.702-.91-1.526-1.93 1.399m-24.625 24.741c-.339 3.195-.813 7.047-1.054 8.559-.296 1.858 0 2.75.912 2.75 1.373 0 2.6-4.164 2.6-8.825 0-3.301 1.384-1.845 2.975 3.13 1.607 5.028 3.917 4.523 5.85-1.279 1.248-3.745 1.617-4.153 2.263-2.5.424 1.085.803 3.662.842 5.724.052 2.78.494 3.75 1.709 3.75 1.391 0 1.544-.795 1.009-5.25-.347-2.887-.635-6.713-.639-8.5-.008-2.758-.371-3.25-2.401-3.25-1.705 0-2.568.704-3.008 2.456-.339 1.351-1.115 3.713-1.726 5.25l-1.109 2.794-1.714-5c-1.235-3.604-2.297-5.086-3.803-5.309-1.859-.275-2.157.332-2.706 5.5m22.522 1.559c-1.281 3.988-2.543 7.813-2.804 8.5-.264.696.28 1.25 1.227 1.25.935 0 1.936-.9 2.223-2 .393-1.503 1.364-2 3.907-2 2.716 0 3.383.394 3.383 2 0 1.355.667 2 2.067 2 1.508 0 1.922-.474 1.529-1.75-.297-.963-1.47-4.787-2.608-8.5-1.757-5.735-2.409-6.75-4.331-6.75-1.929 0-2.608 1.072-4.593 7.25M114 180.5c0 6.738.299 8.5 1.443 8.5.977 0 1.541-1.347 1.75-4.18l.307-4.18 2.886 4.18c1.643 2.379 3.689 4.18 4.75 4.18 2.502 0 2.382-.472-1.278-5.028l-3.143-3.91 2.643-3.464c2.971-3.897 3.184-4.598 1.392-4.598-.687 0-2.696 1.687-4.462 3.75l-3.213 3.75-.037-3.75c-.027-2.65-.478-3.75-1.538-3.75-1.216 0-1.5 1.611-1.5 8.5m15.542-2.809c-.339 3.195-.813 7.047-1.054 8.559-.296 1.858 0 2.75.912 2.75 1.373 0 2.6-4.164 2.6-8.825 0-3.301 1.384-1.845 2.975 3.13 1.607 5.028 3.917 4.523 5.85-1.279 1.248-3.745 1.617-4.153 2.263-2.5.424 1.085.803 3.662.842 5.724.052 2.78.494 3.75 1.709 3.75 1.391 0 1.544-.795 1.009-5.25-.347-2.887-.635-6.713-.639-8.5-.008-2.758-.371-3.25-2.401-3.25-1.705 0-2.568.704-3.008 2.456-.339 1.351-1.115 3.713-1.726 5.25l-1.109 2.794-1.714-5c-1.235-3.604-2.297-5.086-3.803-5.309-1.859-.275-2.157.332-2.706 5.5m20.458.586c0 8.147 1.682 10.723 7 10.723s7-2.576 7-10.723c0-5.745-.181-6.277-2.138-6.277-1.994 0-2.095.357-1.512 5.325.706 6.001-.732 9.131-3.916 8.523-1.647-.314-1.978-1.368-2.23-7.108-.259-5.92-.533-6.74-2.25-6.74-1.731 0-1.954.716-1.954 6.277m18 2.223c0 6.714.301 8.5 1.434 8.5.808 0 1.571-1.166 1.75-2.673.449-3.796 2.429-3.977 4.283-.391.956 1.849 2.367 3.064 3.559 3.064 2.471 0 2.471-.553-.006-3.702-1.784-2.268-1.833-2.726-.5-4.63 1.789-2.554 1.912-5.836.28-7.468-.66-.66-3.36-1.2-6-1.2H168v8.5m3.558-5.725c-.899.899-.641 5.056.352 5.669 1.708 1.056 4.09-.654 4.09-2.934 0-2.154-3.109-4.067-4.442-2.735M102.15 179c-.973 2.79-.878 3 1.35 3s2.323-.21 1.35-3c-.575-1.65-1.183-3-1.35-3-.167 0-.775 1.35-1.35 3" fill="#1976D2" fill-rule="evenodd"/><path fill-opacity=".682" d="M116.324 14.022c-46.638 4.76-86.664 38.801-98.785 84.013C.04 163.308 42.389 229.53 109 241.053c10.416 1.802 29.653 1.585 40.312-.455 46.207-8.841 82.417-45.126 91.339-91.527 2.179-11.337 2.158-30.912-.046-42.383-11.184-58.21-65.449-98.672-124.281-92.666M141 74.615c-23.375 2.916-43.423 5.32-44.55 5.343-1.128.023-4.636-2.262-7.796-5.079-3.16-2.816-5.887-4.954-6.059-4.75-8.237 9.743-37.003 49.797-36.281 50.519.31.309 8.827-7.565 18.926-17.5l18.363-18.062 21.94 21.957L127.483 129h21.228l15.511-19.39c8.531-10.664 16.267-20.452 17.191-21.75 1.427-2.005 1.813-2.129 2.564-.823 2.645 4.599 25.332 33.987 25.843 33.477.68-.681-21.962-45.853-24.614-49.107l-1.706-2.092-42.5 5.3m-54.25 34.101c-2.611.396-2.75.691-2.75 5.85V120h12v-12l-3.25.15c-1.787.082-4.487.337-6 .566m-14.435 1.981c-2.069.403-2.185.945-2.185 10.237v9.812l4.575.627c8.579 1.176 8.436 1.258 8.097-4.623l-.302-5.25-4.5-.6-4.5-.6 4.75-.15L83 120v-10l-4.25.136c-2.338.075-5.233.328-6.435.561M172 115v5h10v-4.369c0-4.272-.083-4.383-3.75-4.989-6.249-1.033-6.25-1.033-6.25 4.358m11.095 5.191.015 9.053 3.695-.611c2.032-.336 4.232-.616 4.889-.622.82-.008 1.195-2.382 1.195-7.564 0-8.094.115-7.928-6.098-8.792l-3.71-.516.014 9.052M84 126.393c0 6.112.568 6.607 7.582 6.607H96v-12H84v5.393m88-.838v4.555l4.75-.305 4.75-.305.307-4.25.308-4.25H172v4.555M97.16 155c-2.919 8.706-2.952 9-.995 9 1.181 0 2.24-.832 2.545-2 .376-1.435 1.364-2 3.5-2s3.125.565 3.5 2c.516 1.973 4.29 2.898 4.29 1.052 0-.522-1.145-4.572-2.544-9-2.238-7.085-2.827-8.052-4.91-8.052-2.091 0-2.72 1.051-5.386 9m12.914-7.75c.041.688 1.068 4.625 2.282 8.75 1.955 6.642 2.483 7.5 4.612 7.5 1.903 0 2.601-.731 3.345-3.5l.94-3.5 1.213 3.5c.916 2.645 1.779 3.5 3.531 3.5 1.967 0 2.658-1.008 4.566-6.666 3.869-11.469 3.776-10.834 1.591-10.834-1.556 0-2.396 1.34-3.92 6.25l-1.941 6.25-1.81-6.25c-1.381-4.765-2.251-6.25-3.663-6.25-1.397 0-1.807.675-1.671 2.75.238 3.627-1.111 9.391-2.061 8.804-.412-.254-1.308-2.958-1.99-6.008-.981-4.382-1.646-5.546-3.17-5.546-1.06 0-1.895.563-1.854 1.25M136 155.044V164h5.5c4.833 0 5.5-.242 5.5-2 0-1.619-.667-2-3.5-2-4.286 0-4.93-2.702-.759-3.184 1.654-.19 2.874-1.011 3.074-2.066.258-1.359-.355-1.75-2.742-1.75-4.527 0-4.004-2.672.629-3.213 7.709-.9 8.298-.38 8.298 7.33 0 6.216.194 6.883 2 6.883 1.808 0 2-.667 2-6.93 0-6.416.166-6.955 2.24-7.25 1.232-.176 2.387-1.095 2.568-2.042.296-1.557-.882-1.721-12.24-1.707l-12.568.016v8.957m-34.318-1.99c-.915 3.418-.87 3.613.818 3.613 1.627 0 1.784-1.082.598-4.113-.706-1.803-.81-1.766-1.416.5m-25.024 19.638c-.283.994-.817 5.07-1.188 9.058-.637 6.86-.563 7.25 1.376 7.25 1.767 0 2.091-.723 2.352-5.25l.302-5.25 1.583 4.5c1.078 3.064 2.154 4.5 3.371 4.5 1.186 0 2.388-1.513 3.576-4.5l1.789-4.5.34 4.991c.259 3.793.761 5.071 2.091 5.323 1.515.288 1.734-.45 1.632-5.491-.167-8.188-1.092-11.74-3.163-12.139-1.312-.252-2.324 1.004-3.939 4.89l-2.173 5.23-1.635-4.902c-1.177-3.53-2.217-4.988-3.717-5.21-1.328-.197-2.27.347-2.597 1.5m24.967-.895c-.961 1.556-5.625 14.882-5.625 16.074 0 1.976 3.744 1.216 4.29-.871.359-1.374 1.364-2 3.21-2 1.846 0 2.851.626 3.21 2 .565 2.161 4.299 2.815 4.277.75-.008-.687-1.088-4.625-2.4-8.75-1.826-5.738-2.858-7.572-4.392-7.807-1.104-.169-2.26.103-2.57.604m12.076-.165c-.385.386-.701 4.451-.701 9.035 0 8.315.006 8.333 2.609 8.333 2.405 0 2.577-.281 2.191-3.583l-.418-3.584 3.214 3.869c2.922 3.519 3.58 3.834 7.26 3.483l4.046-.386.299-5.149.299-5.15 1.583 4.5c1.078 3.064 2.154 4.5 3.371 4.5 1.186 0 2.388-1.513 3.576-4.5l1.789-4.5.34 4.991c.259 3.793.761 5.071 2.091 5.323 1.515.288 1.734-.45 1.632-5.491-.167-8.188-1.092-11.74-3.163-12.139-1.312-.252-2.324 1.004-3.939 4.89l-2.173 5.23-1.639-4.902c-2.533-7.573-6.905-7.197-6.964.598-.014 1.925-.308 5.208-.653 7.296l-.628 3.797-2.821-3.297c-3.493-4.082-3.538-5.096-.402-9.207 2.993-3.924 3.084-4.589.629-4.589-1.029 0-2.942 1.572-4.25 3.492l-2.379 3.493-.5-3.231c-.473-3.06-2.725-4.695-4.299-3.122M150 178.066c0 3.886.446 7.899.992 8.918 1.94 3.627 9.728 3.383 12.243-.384.404-.605.741-4.362.75-8.35.014-6.588-.167-7.25-1.985-7.25-1.808 0-2 .667-2 6.941 0 7.264-.71 8.603-4.009 7.556-1.736-.551-1.991-1.52-1.991-7.564 0-6.266-.192-6.933-2-6.933-1.811 0-2 .667-2 7.066m17.844-6.316c-.086.412-.198 4.462-.25 8.999-.09 7.916-.003 8.25 2.156 8.25 1.733.001 2.25-.573 2.25-2.499 0-3.382 1.612-3.151 3.5.5 1.652 3.195 2.214 3.467 4.355 2.11 1.114-.705 1.037-1.345-.429-3.582-1.436-2.193-1.554-3.093-.605-4.613 1.861-2.979 1.403-6.645-1.044-8.358-2.255-1.58-9.647-2.18-9.933-.807M172 177.5c0 1.982.439 2.562 1.75 2.31.963-.186 1.75-1.225 1.75-2.31s-.787-2.124-1.75-2.31c-1.311-.252-1.75.328-1.75 2.31m-69.361.998c-.993 2.587-.768 3.502.861 3.502 1.651 0 1.938-1.761.624-3.834-.675-1.064-.975-.997-1.485.332M113 201.318c0 1.909.529 2.318 3 2.318 2.563 0 2.995-.374 2.968-2.568-.029-2.348-.145-2.418-1.36-.818-1.629 2.146-2.608 2.24-2.608.25 0-.825-.45-1.5-1-1.5s-1 1.043-1 2.318m8.362-.818c-.858 2.234.335 4.502 2.357 4.485 1.324-.012 1.447-.228.478-.842-1.429-.907-1.269-3.223.303-4.378.562-.413.22-.741-.781-.75-.98-.008-2.041.66-2.357 1.485m6.305-.833c-1.203 1.202-.698 4.384.785 4.953 2.251.864 3.327-.327 2.797-3.096-.46-2.408-2.154-3.286-3.582-1.857M134 202c0 2.196.469 2.996 1.75 2.985 1.498-.013 1.534-.157.25-1-1.333-.876-1.333-1.094 0-1.97 1.333-.875 1.333-.988 0-1.015-1.333-.027-1.333-.138 0-1 1.282-.828 1.246-.972-.25-.985-1.281-.011-1.75.789-1.75 2.985m6.136-.25c-.104 2.486.276 3.246 1.614 3.235 1.124-.01 1.339-.278.601-.75-.632-.404-1.358-1.86-1.614-3.235-.393-2.117-.486-2.002-.601.75" fill="#1976D2" fill-rule="evenodd"/></svg>