<svg xmlns="http://www.w3.org/2000/svg" width="256" height="256"><path fill-opacity=".016" d="M0 128.004v128.004l128.25-.254 128.25-.254.254-127.75L257.008 0H0v128.004m.485.496c0 70.4.119 99.053.265 63.672.146-35.38.146-92.98 0-128C.604 29.153.485 58.1.485 128.5" fill="#1976D2" fill-rule="evenodd"/><path fill-opacity=".055" d="M108.5 11.075c-43.73 7.354-81.673 40.927-93.858 83.047-3.958 13.68-4.942 22.326-4.388 38.557.585 17.171 3.143 28.72 9.601 43.356 10.588 23.993 32.044 46.45 55.645 58.24 8.124 4.059 22.145 8.653 31.26 10.242 11.164 1.947 32.751 1.913 43.193-.068 47.643-9.037 85.476-46.945 94.54-94.727 1.994-10.508 1.971-33.056-.044-43.675-9.044-47.679-47.953-86.324-95.209-94.564-9.162-1.598-32.289-1.83-40.74-.408m15.25 7.657c2.337.211 6.162.211 8.5 0 2.338-.21.425-.383-4.25-.383s-6.588.173-4.25.383m-13 .93c.688.278 1.813.278 2.5 0 .688-.277.125-.504-1.25-.504s-1.937.227-1.25.504m32 0c.688.278 1.813.278 2.5 0 .688-.277.125-.504-1.25-.504s-1.937.227-1.25.504m-36.937 1.021c.721.289 1.584.253 1.916-.079.332-.332-.258-.568-1.312-.525-1.165.048-1.402.285-.604.604m43 0c.721.289 1.584.253 1.916-.079.332-.332-.258-.568-1.312-.525-1.165.048-1.402.285-.604.604M99.75 36.747c6.188.175 16.313.175 22.5 0 6.188-.176 1.125-.319-11.25-.319s-17.437.143-11.25.319M63.872 38.75c-1.243 1.586-1.208 1.621.378.378.963-.755 1.75-1.543 1.75-1.75 0-.823-.821-.294-2.128 1.372M135.445 70c0 17.325.137 24.412.303 15.75.167-8.663.167-22.838 0-31.5-.166-8.663-.303-1.575-.303 15.75M193 39.378c0 .207.787.995 1.75 1.75 1.586 1.243 1.621 1.208.378-.378-1.307-1.666-2.128-2.195-2.128-1.372M59.872 41.75c-1.243 1.586-1.208 1.621.378.378.962-.755 1.75-1.543 1.75-1.75 0-.823-.821-.294-2.128 1.372M108.42 59.5c-.001 11 .145 15.636.325 10.303.179-5.333.18-14.333.001-20-.178-5.667-.325-1.303-.326 9.697m23.022 9.5c0 16.225.138 22.862.306 14.75.168-8.113.168-21.388 0-29.5-.168-8.113-.306-1.475-.306 14.75M200 45.5c1.292 1.375 2.574 2.5 2.849 2.5.275 0-.557-1.125-1.849-2.5-1.292-1.375-2.574-2.5-2.849-2.5-.275 0 .557 1.125 1.849 2.5M49.971 50.75 43.5 57.5l6.75-6.471C56.52 45.018 57.457 44 56.721 44c-.153 0-3.191 3.038-6.75 6.75M210 55.378c0 .207.787.995 1.75 1.75 1.586 1.243 1.621 1.208.378-.378-1.307-1.666-2.128-2.195-2.128-1.372M72.25 57.735c2.612.206 6.888.206 9.5 0s.475-.375-4.75-.375-7.362.169-4.75.375m19.019-.042c.973.254 2.323.237 3-.037.677-.274-.119-.481-1.769-.461-1.65.02-2.204.244-1.231.498m64.538.054c6.769.174 17.569.173 24-.001 6.431-.174.893-.315-12.307-.315-13.2.001-18.462.143-11.693.316M40.872 60.75c-1.243 1.586-1.208 1.621.378.378.962-.755 1.75-1.543 1.75-1.75 0-.823-.821-.294-2.128 1.372M214 60.378c0 .207.787.995 1.75 1.75 1.586 1.243 1.621 1.208.378-.378-1.307-1.666-2.128-2.195-2.128-1.372M67.433 62.315c-.29.755-.37 4.705-.179 8.779l.349 7.406.198-8.25L68 62h26.919l.359 8.25.359 8.25-.068-8.5-.069-8.5-13.771-.278c-10.939-.221-13.878.003-14.296 1.093M139.382 72.5c.002 6.6.164 9.17.359 5.711.196-3.459.195-8.859-.003-12s-.358-.311-.356 6.289m-76.054-4c.005 3.85.185 5.302.402 3.228.216-2.075.213-5.225-.008-7-.221-1.776-.398-.078-.394 3.772M99.32 68c0 3.575.182 5.037.403 3.25.222-1.787.222-4.713 0-6.5-.221-1.788-.403-.325-.403 3.25M143 71.833c0 5.592.414 10.167.92 10.167.844 0 .316-18.92-.556-19.917-.2-.229-.364 4.159-.364 9.75M37.872 64.75c-1.243 1.586-1.208 1.621.378.378.962-.755 1.75-1.543 1.75-1.75 0-.823-.821-.294-2.128 1.372M191.31 69.5c.005 3.3.192 4.529.415 2.732.222-1.797.218-4.497-.01-6-.229-1.503-.411-.032-.405 3.268M120.232 71c0 1.925.206 2.713.457 1.75.252-.963.252-2.537 0-3.5-.251-.963-.457-.175-.457 1.75m33.536-.275c1.797.222 4.497.218 6-.01 1.503-.229.032-.411-3.268-.405-3.3.005-4.529.192-2.732.415m22 0c1.797.222 4.497.218 6-.01 1.503-.229.032-.411-3.268-.405-3.3.005-4.529.192-2.732.415m-6.778 1.787c-1.022 1.232-1.539 1.278-2.783.25-1.356-1.119-1.372-1.011-.143.962 1.123 1.804 1.538 1.952 2.192.782.444-.793 1.581-1.893 2.526-2.444.945-.551 1.211-1.015.59-1.032-.62-.016-1.692.651-2.382 1.482m16.093-1.251c.23.143 1.542 1.156 2.917 2.25l2.5 1.989-1.905-2.25c-1.048-1.237-2.36-2.25-2.917-2.25-.556 0-.824.117-.595.261M171 76.059c0 .582.45.781 1 .441s1-.816 1-1.059-.45-.441-1-.441-1 .477-1 1.059M58.243 79.157c-.684.684-1.214 1.941-1.18 2.793.039.951.413.68.968-.7.944-2.348 5.331-3.2 6.311-1.225.279.564.395.451.256-.25-.342-1.726-4.812-2.161-6.355-.618m42.57-.474c.721.289 1.584.253 1.916-.079.332-.332-.258-.568-1.312-.525-1.165.048-1.402.285-.604.604m3.918 2.397c.354 1.352.807 1.806 1.057 1.057.24-.722-.038-1.787-.62-2.369-.742-.742-.872-.351-.437 1.312m-51.652.503c.048 1.165.285 1.402.604.605.289-.722.253-1.585-.079-1.917-.332-.332-.568.258-.525 1.312m100.683-.876c1.244.239 3.044.23 4-.02s-.062-.446-2.262-.435c-2.2.011-2.982.216-1.738.455m25.488-.018c.963.252 2.537.252 3.5 0 .963-.251.175-.457-1.75-.457s-2.713.206-1.75.457M74.206 84.741c3.689.191 9.989.193 14 .002 4.012-.19.994-.347-6.706-.348-7.7-.002-10.982.154-7.294.346M108.336 91c0 4.125.177 5.813.392 3.75.216-2.062.216-5.437 0-7.5-.215-2.062-.392-.375-.392 3.75m47.928-6.282c1.52.229 3.77.223 5-.014 1.23-.237-.014-.425-2.764-.418-2.75.008-3.756.202-2.236.432m18 0c1.52.229 3.77.223 5-.014 1.23-.237-.014-.425-2.764-.418-2.75.008-3.756.202-2.236.432m21.736-.34c0 .207.787.995 1.75 1.75 1.586 1.243 1.621 1.208.378-.378-1.307-1.666-2.128-2.195-2.128-1.372m-47.187 1.305c.721.289 1.584.253 1.916-.079.332-.332-.258-.568-1.312-.525-1.165.048-1.402.285-.604.604m37 0c.721.289 1.584.253 1.916-.079.332-.332-.258-.568-1.312-.525-1.165.048-1.402.285-.604.604m-44.255 1.224c-.309.498.34.671 1.441.383 2.335-.611 2.63-1.29.56-1.29-.793 0-1.693.408-2.001.907M62.343 94.5c.003 4.4.179 6.076.39 3.724.212-2.352.209-5.952-.006-8s-.388-.124-.384 4.276m38 0c.003 4.4.179 6.076.39 3.724.212-2.352.209-5.952-.006-8s-.388-.124-.384 4.276m-42 1c.003 4.4.179 6.076.39 3.724.212-2.352.209-5.952-.006-8s-.388-.124-.384 4.276m9.935-6.889c.688.688 25.912.532 26.609-.164.245-.246-5.779-.447-13.387-.447-7.608 0-13.558.275-13.222.611M104.3 93c0 3.025.187 4.263.416 2.75.229-1.513.229-3.987 0-5.5s-.416-.275-.416 2.75m94.895-1.5c.02 1.65.244 2.204.498 1.231.254-.973.237-2.323-.037-3-.274-.677-.481.119-.461 1.769M189 103.393c0 .216.698.661 1.552.989.89.341 1.291.173.941-.393-.587-.951-2.493-1.406-2.493-.596m46.079 2.19c.048 1.165.285 1.402.604.605.289-.722.253-1.585-.079-1.917-.332-.332-.568.258-.525 1.312m-215 1c.048 1.165.285 1.402.604.605.289-.722.253-1.585-.079-1.917-.332-.332-.568.258-.525 1.312M236.158 111c0 1.375.227 1.938.504 1.25.278-.687.278-1.812 0-2.5-.277-.687-.504-.125-.504 1.25m-217 2c0 1.375.227 1.938.504 1.25.278-.687.278-1.812 0-2.5-.277-.687-.504-.125-.504 1.25m59.111.693c.973.254 2.323.237 3-.037.677-.274-.119-.481-1.769-.461-1.65.02-2.204.244-1.231.498m7 0c.973.254 2.323.237 3-.037.677-.274-.119-.481-1.769-.461-1.65.02-2.204.244-1.231.498m57.481-.031c.688.278 1.813.278 2.5 0 .688-.277.125-.504-1.25-.504s-1.937.227-1.25.504m5 0c.688.278 1.813.278 2.5 0 .688-.277.125-.504-1.25-.504s-1.937.227-1.25.504m34.063.021c.721.289 1.584.253 1.916-.079.332-.332-.258-.568-1.312-.525-1.165.048-1.402.285-.604.604m4.937-.021c.688.278 1.813.278 2.5 0 .688-.277.125-.504-1.25-.504s-1.937.227-1.25.504m8.25 1.731c0 .216.698.661 1.552.989.89.341 1.291.173.941-.393-.587-.951-2.493-1.406-2.493-.596m-64.128 3.357c-1.243 1.586-1.208 1.621.378.378.963-.755 1.75-1.543 1.75-1.75 0-.823-.821-.294-2.128 1.372m31.077 1.503 3.449 3.753 3.301-3.199c1.816-1.76 3.301-3.44 3.301-3.734 0-.294-1.448.913-3.217 2.682l-3.217 3.217-3.533-3.236-3.533-3.236 3.449 3.753M201 119.5c1.292 1.375 2.574 2.5 2.849 2.5.275 0-.557-1.125-1.849-2.5-1.292-1.375-2.574-2.5-2.849-2.5-.275 0 .557 1.125 1.849 2.5m-98 1c1.292 1.375 2.574 2.5 2.849 2.5.275 0-.557-1.125-1.849-2.5-1.292-1.375-2.574-2.5-2.849-2.5-.275 0 .557 1.125 1.849 2.5m134.37 7.5c0 5.775.165 8.137.367 5.25.202-2.887.202-7.612 0-10.5s-.367-.525-.367 5.25m-177.933-5.75L56.5 125.5l3.25-2.937c1.788-1.615 3.25-3.078 3.25-3.25 0-.773-.825-.092-3.563 2.937M18.349 128c0 4.675.173 6.588.383 4.25.211-2.338.211-6.163 0-8.5-.21-2.338-.383-.425-.383 4.25m186.215-3.707c.376.986.935 1.541 1.243 1.233.308-.307.001-1.114-.683-1.793-.988-.98-1.102-.865-.56.56m-94.485 9.29c.048 1.165.285 1.402.604.605.289-.722.253-1.585-.079-1.917-.332-.332-.568.258-.525 1.312M122.232 135c0 1.925.206 2.713.457 1.75.252-.963.252-2.537 0-3.5-.251-.963-.457-.175-.457 1.75m86.213 30c0 17.325.137 24.412.303 15.75.167-8.663.167-22.838 0-31.5-.166-8.663-.303-1.575-.303 15.75m-97.003 2c0 16.225.138 22.862.306 14.75.168-8.113.168-21.388 0-29.5-.168-8.113-.306-1.475-.306 14.75m-60.001.5c.001 15.95.139 22.335.307 14.189.168-8.146.168-21.196-.001-29-.168-7.804-.306-1.139-.306 14.811m27.066-27.511c-.35.566.051.734.941.393 1.732-.665 2.049-1.382.611-1.382-.518 0-1.216.445-1.552.989m73.492 27.81.499 28.701.267-27.934c.147-15.363-.077-28.279-.499-28.701-.421-.422-.541 12.148-.267 27.934m26.453-27.535c-.267.695-.364 13.633-.217 28.75l.268 27.486.498-28.751c.275-15.812.372-28.75.218-28.75-.155.001-.5.57-.767 1.265M19.195 143.5c.02 1.65.244 2.204.498 1.231.254-.973.237-2.323-.037-3-.274-.677-.481.119-.461 1.769m66.245 25c0 15.4.139 21.56.308 13.689.169-7.87.169-20.47-.001-28-.169-7.529-.308-1.089-.307 14.311m-8.361-24.917c.048 1.165.285 1.402.604.605.289-.722.253-1.585-.079-1.917-.332-.332-.568.258-.525 1.312M236.158 145c0 1.375.227 1.938.504 1.25.278-.687.278-1.812 0-2.5-.277-.687-.504-.125-.504 1.25m-216.079 4.583c.048 1.165.285 1.402.604.605.289-.722.253-1.585-.079-1.917-.332-.332-.568.258-.525 1.312m215 1c.048 1.165.285 1.402.604.605.289-.722.253-1.585-.079-1.917-.332-.332-.568.258-.525 1.312m-20.207 44.167c-1.243 1.586-1.208 1.621.378.378 1.666-1.307 2.195-2.128 1.372-2.128-.207 0-.995.787-1.75 1.75M40 194.378c0 .207.788.995 1.75 1.75 1.586 1.243 1.621 1.208.378-.378-1.307-1.666-2.128-2.195-2.128-1.372m18.789 3.363c3.459.196 8.859.195 12-.003s.311-.358-6.289-.356c-6.6.002-9.17.164-5.711.359m34 0c3.459.196 8.859.195 12-.003s.311-.358-6.289-.356c-6.6.002-9.17.164-5.711.359m36.461-.002c3.162.198 8.338.198 11.5 0 3.162-.198.575-.361-5.75-.361s-8.912.163-5.75.361m30.539.002c3.459.196 8.859.195 12-.003s.311-.358-6.289-.356c-6.6.002-9.17.164-5.711.359m30.461-.002c3.162.198 8.338.198 11.5 0 3.162-.198.575-.361-5.75-.361s-8.912.163-5.75.361m20.622 2.011c-1.243 1.586-1.208 1.621.378.378.963-.755 1.75-1.543 1.75-1.75 0-.823-.821-.294-2.128 1.372M50 205.5c3.543 3.575 6.667 6.5 6.942 6.5.275 0-2.399-2.925-5.942-6.5s-6.667-6.5-6.942-6.5c-.275 0 2.399 2.925 5.942 6.5m149.924 5.25-2.424 2.75 2.75-2.424c1.512-1.334 2.75-2.571 2.75-2.75 0-.785-.81-.146-3.076 2.424M59 213.378c0 .207.788.995 1.75 1.75 1.586 1.243 1.621 1.208.378-.378-1.307-1.666-2.128-2.195-2.128-1.372m134.872 2.372c-1.243 1.586-1.208 1.621.378.378 1.666-1.307 2.195-2.128 1.372-2.128-.207 0-.995.787-1.75 1.75M84 229c.825.533 1.95.969 2.5.969s.325-.436-.5-.969c-.825-.533-1.95-.969-2.5-.969s-.325.436.5.969m21.813 6.683c.721.289 1.584.253 1.916-.079.332-.332-.258-.568-1.312-.525-1.165.048-1.402.285-.604.604m43 0c.721.289 1.584.253 1.916-.079.332-.332-.258-.568-1.312-.525-1.165.048-1.402.285-.604.604m-38.063.979c.688.278 1.813.278 2.5 0 .688-.277.125-.504-1.25-.504s-1.937.227-1.25.504m32 0c.688.278 1.813.278 2.5 0 .688-.277.125-.504-1.25-.504s-1.937.227-1.25.504m-20.988 1.045c1.244.239 3.044.23 4-.02s-.062-.446-2.262-.435c-2.2.011-2.982.216-1.738.455m10 0c1.244.239 3.044.23 4-.02s-.062-.446-2.262-.435c-2.2.011-2.982.216-1.738.455" fill="#1976D2" fill-rule="evenodd"/><path fill-opacity=".224" d="M108.136 11.606C60.985 19.51 22.671 56.483 12.39 104c-2.556 11.809-2.556 36.191 0 48 5.228 24.165 16.519 44.18 34.701 61.518 57.181 54.525 150.886 38.174 186.36-32.518 25.734-51.282 11.11-112.992-35.028-147.805-8.91-6.724-26.551-15.463-37.535-18.595-16.607-4.735-35.853-5.827-52.752-2.994m1.783 7.343c-43.932 8.023-78.301 39.975-89.207 82.934-3.177 12.513-3.177 39.721 0 52.234 9.94 39.152 39.605 69.605 78.395 80.478 13.348 3.742 37.03 4.494 50.893 1.617 43.347-8.995 77.04-42.473 86.131-85.581 2.626-12.456 2.634-32.788.017-45.131-8.662-40.849-38.789-72.809-79.255-84.078-7.996-2.227-11.848-2.667-25.893-2.962-9.075-.191-18.561.029-21.081.489M88.25 37.662c-.882.356-1.25 3.424-1.25 10.421V58h-9.5C65.288 58 64 59.002 64 68.5c0 6.186-.115 6.5-2.389 6.5-2.852 0-6.198 2.673-7.055 5.636-.423 1.46.168 3.072 1.866 5.089 2.07 2.46 2.533 4.185 2.781 10.363.264 6.581.549 7.523 2.547 8.399 1.238.543 2.25 1.556 2.25 2.25 0 .695.45 1.263 1 1.263s1-.675 1-1.5c0-1.269 2.389-1.5 15.5-1.5s15.5.231 15.5 1.5c0 .825.45 1.5 1 1.5s1-.675 1-1.5a1.5 1.5 0 0 1 1.492-1.5c.82 0 2.053-.9 2.74-2 1.03-1.65 2.332-2 7.435-2 4.883 0 6.254.339 6.51 1.608.477 2.373 15.169 2.373 15.646 0 .178-.884.741-1.608 1.25-1.608.549 0 .927-12.622.927-30.965 0-29.59-.086-31.011-1.934-32-1.942-1.039-42.332-1.375-44.816-.373M89 49v9h3c5.151 0 7 2.934 7 11.107 0 6.034.236 7.016 1.563 6.507 2.141-.821 7.156 1.924 7.922 4.337.684 2.157-.5 4.986-2.93 7.004-1.054.874-1.555 3.023-1.555 6.667 0 5.026.159 5.378 2.427 5.378 2.359 0 2.435-.243 2.75-8.75.177-4.812.185-18.088.017-29.5L108.888 40H89v9m23 20.5V99h20V40h-20v29.5m29.2-9.3c-.797.797-1.2 5.142-1.2 12.941 0 6.749-.425 12.004-1 12.359-.568.351-1 5.344-1 11.559 0 10.209.131 10.941 1.965 10.941 1.08 0 2.498-1.013 3.15-2.25.651-1.237 1.68-2.581 2.285-2.985 1.286-.859 41.089-1.009 44.228-.167 1.171.315 2.623 1.658 3.229 2.987.635 1.394 1.955 2.415 3.122 2.415 1.904 0 2.021-.628 2.021-10.878 0-8.449-.335-11.155-1.5-12.122-1.17-.971-1.5-3.707-1.5-12.422 0-7.361-.41-11.588-1.2-12.378-1.707-1.707-50.893-1.707-52.6 0m-71.886.448c-1.795.39-2.302 1.41-2.841 5.718-.36 2.884-.391 6.569-.069 8.189s.933 4.745 1.356 6.945l.771 4 13.234.314L95 86.127v-3.504c0-1.928.504-3.817 1.121-4.198 1.238-.765.764-15.873-.539-17.176-.837-.838-22.856-1.341-26.268-.601m74.353 1.019c-.998.997-.805 21.333.201 21.333.478 0 1.112-1.818 1.41-4.039.842-6.275 1.896-6.961 10.689-6.961 8.385 0 10.409 1.075 11.306 6l.455 2.5.136-2.679c.237-4.666 2.437-5.821 11.085-5.821 8.835 0 9.743.578 10.226 6.504.232 2.835.828 4.075 2.075 4.311 1.567.297 1.75-.661 1.75-9.16 0-5.22-.273-10.203-.607-11.073-.53-1.381-3.62-1.582-24.333-1.582-13.05 0-24.027.3-24.393.667m-26.484 8.977c.175 2.121.767 3.744 1.317 3.606 1.488-.372 1.211-6.513-.317-7.022-.97-.324-1.233.575-1 3.416m32.057 4.516c-.682.682-1.24 2.486-1.24 4.009v2.768l8.25-.608c4.537-.334 8.446-.779 8.686-.988.24-.209.006-1.609-.52-3.111-.893-2.548-1.39-2.749-7.446-3.02-4.187-.187-6.93.15-7.73.95m21.96.04c-.66.66-1.2 2.235-1.2 3.5 0 2.115.433 2.3 5.375 2.3 2.956 0 6.781.281 8.5.625 2.93.586 3.125.443 3.125-2.3 0-4.282-1.665-5.325-8.5-5.325-3.411 0-6.629.529-7.3 1.2M57.667 78.667c-1.546 1.546-.533 5.375 1.833 6.925 2.317 1.518 2.5 2.216 2.5 9.523 0 7.218.169 7.885 2 7.885 1.874 0 2-.667 2-10.566 0-5.811-.466-11.436-1.035-12.5-1.011-1.889-5.839-2.727-7.298-1.267M98.2 79.2c-.792.792-1.2 5.044-1.2 12.5 0 10.633.118 11.3 2 11.3 1.831 0 2-.667 2-7.885 0-7.307.183-8.005 2.5-9.523 4.037-2.645 2.734-7.592-2-7.592-1.155 0-2.64.54-3.3 1.2m59.8 4.409c-9.471 1.124-16.543 2.648-17.219 3.711-.413.649-.757 1.967-.766 2.93C140.001 91.875 141.994 92 168 92c26.725 0 28-.086 28-1.878 0-2.669-1.979-3.98-7.629-5.052-5.854-1.11-25.402-2.05-30.371-1.461M68 89.5c0 1.259 2.167 1.5 13.5 1.5S95 90.759 95 89.5 92.833 88 81.5 88 68 88.241 68 89.5m0 8.5v5h27V93H68v5m72 1.635v5.635l2.073-2.635 2.072-2.635h47.71l2.072 2.635L196 105.27V94h-56v5.635m-67.197 15.7c-10.17 2.878-17.567 10.676-19.741 20.813-.603 2.811-1.062 16.811-1.062 32.401V196H75.925l.287-9.25.288-9.25 3.25-.313 3.25-.314V156h-7v-5.351c0-9.626 3.099-14.272 7.83-11.74 2.83 1.515 3.17 4.966 3.17 32.216V196h24v-27.168c0-15.445-.48-29.924-1.112-33.555-1.456-8.359-5.806-14.885-12.047-18.073-5.778-2.952-17.99-3.863-25.038-1.869m65.755.157c-5.609 1.998-8.626 4.506-12.058 10.023l-3 4.823-.301 32.831-.3 32.831H147v-27.309c0-28.638.464-31.878 4.355-30.385 1.473.565 1.645 3.609 1.645 29.163V196h25v-28.393c0-25.953.148-28.45 1.724-29.054 3.851-1.478 4.276 1.52 4.276 30.138V196h24.103l-.302-32.25-.301-32.25-2.648-5.648c-2.108-4.496-3.638-6.23-7.5-8.5-9.242-5.433-23.704-3.205-29.425 4.533l-2.121 2.868-4.153-4.146c-6.271-6.263-14.659-8.12-23.095-5.115" fill="#1976D2" fill-rule="evenodd"/><path fill-opacity=".679" d="M114.5 11.137c-36.775 4.646-68.743 25.376-87.404 56.681-31.466 52.783-16.932 120.887 33.379 156.405 45.374 32.033 107.292 27.624 148.171-10.553 17.938-16.752 31.063-41.067 35.446-65.67 1.716-9.634 1.716-30.366 0-40-4.383-24.603-17.508-48.918-35.446-65.67-18.371-17.157-40.08-27.36-65.646-30.856-11.599-1.585-18.016-1.661-28.5-.337m-2 6.904c-24.664 3.831-47.999 16.051-65.008 34.045-50.162 53.067-36.017 138.98 28.621 173.835 30.158 16.262 67.353 17.248 98.51 2.612 12.431-5.84 20.287-11.325 30.628-21.384 14.818-14.415 25.151-32.007 30.467-51.872 2.349-8.78 2.616-11.561 2.616-27.277 0-15.716-.267-18.497-2.616-27.277-5.323-19.893-15.832-37.764-30.549-51.951C188.87 33.059 172.328 24.163 150.5 19.37c-8.489-1.864-29.762-2.608-38-1.329M87.685 38.648c-.377.377-.685 5.11-.685 10.519V59h-9.8c-6.289 0-10.23.43-11 1.2-.714.714-1.2 4.156-1.2 8.5V76h-3.345c-6.337 0-8.781 6.125-4.155 10.412 2.245 2.081 2.5 3.094 2.5 9.934 0 7.244.119 7.646 2.445 8.23 1.345.337 2.642 1.358 2.884 2.269.387 1.46.453 1.449.555-.095.105-1.586 1.561-1.75 15.543-1.75 13.851 0 15.473.179 15.884 1.75.392 1.499.474 1.515.573.108.064-.902 1.241-1.924 2.616-2.269 1.375-.345 2.5-1.294 2.5-2.108 0-1.167 1.484-1.481 7-1.481 5.556 0 7 .31 7 1.5 0 1.2 1.5 1.5 7.5 1.5s7.5-.3 7.5-1.5c0-.825.456-1.5 1.014-1.5.67 0 .925-10.617.75-31.25L133.5 38.5l-22.565-.268c-12.411-.148-22.873.04-23.25.416m1.731 1.269c-.229.229-.416 4.616-.416 9.75V59h3.3c4.842 0 5.7 1.461 5.7 9.7V76h2.777c6.689 0 9.432 6.048 4.723 10.412-2.041 1.892-2.5 3.259-2.5 7.453V99h7.03l-.265-29.578-.265-29.579-9.834-.171c-5.409-.095-10.021.016-10.25.245M111 69.5V99h22V40h-22v29.5m31.2-9.3c-.784.784-1.211 5.028-1.232 12.25-.023 8.128-.42 11.563-1.5 12.991-1.07 1.415-1.468 4.734-1.468 12.25 0 9.154.196 10.308 1.75 10.303.963-.004 2.517-1.354 3.453-3l1.704-2.994h46.033l2.218 3c3.937 5.325 4.842 4.053 4.842-6.809 0-7.076-.409-10.349-1.468-11.75-1.083-1.431-1.477-4.878-1.5-13.12-.025-8.798-.367-11.513-1.603-12.75-1.343-1.342-5.108-1.571-25.8-1.571-17.512 0-24.562.333-25.429 1.2m-75 1c-1.566 1.566-1.55 12.735.027 19.521L68.455 86h26.318l.717-3.25c1.419-6.427 1.71-19.805.463-21.307-1.573-1.895-26.887-2.109-28.753-.243m75.484.45c-.376.376-.684 5.333-.684 11.017 0 9.666.129 10.333 2 10.333 1.653 0 2-.667 2-3.845 0-5.633 2.197-7.155 10.329-7.155 7.562 0 10.593 1.899 10.773 6.75.094 2.522.17 2.464.915-.701 1.122-4.764 3.341-6.049 10.452-6.049C186.44 72 189 73.716 189 79.057c0 3.298.333 3.943 2.034 3.943 1.936 0 2.02-.514 1.75-10.75L192.5 61.5l-24.566-.267c-13.512-.147-24.874.041-25.25.417m-25.017 6.017C116.613 68.72 116.891 74 118 74c.55 0 1-1.575 1-3.5 0-3.597-.182-3.984-1.333-2.833m30.305 8.385c-1.674 3.128-.855 6.484 1.528 6.26 15.605-1.466 15.5-1.444 15.5-3.31 0-4.476-.901-5.002-8.572-5.002-6.396 0-7.501.268-8.456 2.052m22.733-1.424c-.388.388-.705 1.908-.705 3.377 0 2.615.184 2.693 8.547 3.612l8.546.939-.296-4.028-.297-4.028-7.545-.288c-4.15-.159-7.862.029-8.25.416M57.496 79.004c-1.498 1.656-1.616 2.438-.676 4.5.625 1.373 1.822 2.496 2.659 2.496C60.721 86 61 87.558 61 94.5c0 8.4.029 8.5 2.5 8.5H66V91.2c0-7.844-.402-12.202-1.2-13-1.819-1.819-5.274-1.439-7.304.804m41.075-.433c-1.245 1.246-1.571 3.944-1.571 13V103h2.5c2.471 0 2.5-.1 2.5-8.5 0-6.942.279-8.5 1.521-8.5.837 0 2.059-1.178 2.714-2.617 1.053-2.311.92-2.839-1.132-4.5-2.833-2.295-4.471-2.373-6.532-.312m49.929 5.801c-7.361 1.384-8.5 2.079-8.5 5.187V92h56v-2.465c0-1.355-.787-2.882-1.75-3.392-5.603-2.967-33.616-4.052-45.75-1.771M68 89c0 1.901.667 2 13.5 2S95 90.901 95 89s-.667-2-13.5-2-13.5.099-13.5 2m0 8.5v5.5h27V92H68v5.5m72.027 2.75c.026 6.242.028 6.247 1.691 3.567.915-1.476 2.591-2.933 3.723-3.237 3.048-.818 43.752-.56 45.917.291 1.022.402 2.469 1.833 3.215 3.18 1.26 2.275 1.359 2.006 1.392-3.801L196 94h-56l.027 6.25m-69.973 16.478c-2.557.902-6.457 3.579-9.175 6.298C53.462 130.443 53 133.032 53 167.182V196h23v-19h7.07l-.285-10.25-.285-10.25-3.25-.313-3.25-.314v-6.714C76 141.131 77.69 138 82.022 138c1.851 0 3.284.703 3.943 1.934.64 1.197 1.035 12.256 1.035 29V196h23v-29.818c0-34.882-.533-38.11-7.388-44.709-2.3-2.215-6.019-4.578-8.263-5.25-5.606-1.68-18.89-1.404-24.295.505m66.446.168c-4.917 2.276-8.823 6.329-11.185 11.604-1.572 3.514-1.831 7.861-2.127 35.75l-.337 31.75H147v-27.418c0-15.08.273-28.13.607-29 .334-.87 1.636-1.582 2.893-1.582s2.559.712 2.893 1.582c.334.87.607 13.92.607 29V196h22.969l.265-28.142c.233-24.625.468-28.268 1.88-29.159.888-.559 2.35-.735 3.25-.39 1.462.561 1.636 3.667 1.636 29.16V196h23l-.006-31.25c-.003-17.849-.436-32.801-1.01-34.868-2.677-9.636-9.986-14.882-20.736-14.882-7.411 0-12.429 2.164-16.947 7.31l-3.01 3.428-2.69-3.371c-5.695-7.138-17.263-9.563-26.101-5.471" fill="#1976D2" fill-rule="evenodd"/></svg>